# xmcd
#
# Track frame offsets:
#	150
#	12455
#	26349
#	37184
#	48207
#	58825
#	73166
#	88114
#	100653
#	114284
#
# Disc length: 1656 seconds
#
# Revision: 0
# Processed by: cddbd v1.5.2PL0 Copyright (c) Steve Scherf et al.
# Submitted via: EZCDAudioConverter 7.0.5.1
#
DISCID=8006760a
DTITLE=Chuck Berry - Collection Disques D'Or - Volume 7
DYEAR=2010
DGENRE=Retro
TTITLE0=Johnny B. Goode (1957)
TTITLE1=Sweet Little Sixteen (1957)
TTITLE2=Maybellene (1955)
TTITLE3=Roll Over Beethoven (1956)
TTITLE4=Brown Eyed Handsome Man (1956)
TTITLE5=Havana Moon (1956)
TTITLE6=Reelin' and Rockin' (1956)
TTITLE7=You Can't Catch Me (1956)
TTITLE8=No Money Down (1955)
TTITLE9=Memphis (1958)
EXTD=
EXTT0=
EXTT1=
EXTT2=
EXTT3=
EXTT4=
EXTT5=
EXTT6=
EXTT7=
EXTT8=
EXTT9=
PLAYORDER=
